<?xml version="1.0" encoding="utf-8"?>
<!-- Generator: Adobe Illustrator 22.1.0, SVG Export Plug-In . SVG Version: 6.00 Build 0)  -->
<svg version="1.1" id="Layer_1" xmlns="http://www.w3.org/2000/svg" xmlns:xlink="http://www.w3.org/1999/xlink" x="0px" y="0px"
	 width="260px" height="260px" viewBox="0 0 260 260" style="enable-background:new 0 0 260 260;" xml:space="preserve">
<path d="M86.3,89.4c0.5-0.8,1-1.8,1.6-2.6L85.3,92C85.5,91.2,86.1,90.4,86.3,89.4z M90.8,84.7c-0.5,1-1,2.4-1.6,3.7
	C90,87,90.5,85.7,90.8,84.7z M121.6,84.7c-0.5,1-1,2.4-1.6,3.7C120.8,87,121.4,85.7,121.6,84.7z M116.4,92.3L119,87
	c-0.5,0.8-1,1.6-1.6,2.6C116.9,90.4,116.7,91.2,116.4,92.3z M202.7,87.3h-0.8v-0.5c0-0.8,0.3-1.6,1-2.4h0.3c0.5-1.3,1-2.6,1.6-4.4
	s1-3.4,1.6-4.7c0.3-0.5,0.3-0.8,0.3-1.3c-0.3,0.3-0.8,0.8-1,1.6s-0.8,1.8-1,2.6c-0.3,1-0.8,1.8-0.8,2.9c-0.3,0.8-0.5,1.6-0.5,2.1
	c0-0.3,0.3-1,0.5-2.4c0.3-1,0.5-2.4,1-3.4c0.3-1,0.8-2.1,1-3.1c0.5-0.8,0.8-1.3,1-1.3l0.5,0.3c0.5,0,0.8,0.3,0.8,0.5h0.3
	c0.3,0,0.5,0,0.8,0.3l1-0.3c0.3,0.3,0.8,0.5,1,0.5l0.3,0.8c0,1.8-0.3,4.2-1,7.3c-0.8,2.9-1.6,5-2.9,6.5c0,0-0.3,0-0.5,0.3
	c-0.3,0-0.5,0.3-0.5,0.3c-0.5,0-1.3-0.3-2.4-0.8C203.8,88.1,203.2,87.8,202.7,87.3z M204.8,81.5L204.8,81.5c0.5-0.5,0.5-1,0.8-1.6
	c0-0.5,0.3-1,0.5-1.6h-0.3L204.8,81.5z M260,114.5c-2.4,5-6,9.2-10.7,13.1c-4.7,3.9-9.4,6.8-14.4,8.6c-0.5,1.3-1,3.1-2.1,5
	c-0.8,1.8-1.8,3.7-3.1,5.2c-1.3,1.6-2.6,3.1-4.2,4.2c-1.6,1-3.1,1.6-5,1.6c-1.3,0-2.1-0.3-3.1-0.5c-0.8-0.3-1.8-0.8-2.9-1.3
	c-1.8-0.8-3.1-1.6-4.4-2.6c-1.3-0.8-2.1-1.8-2.6-2.9c-0.5-1-1-2.1-1.3-3.7c-0.3-1.3-0.5-3.1-0.5-5c0-0.5,0-1.3,0-1.8
	c-0.3,0.3-0.5,0.8-0.8,1c-1.6,1.8-3.1,3.7-4.4,5.2c-1.6,1.6-2.9,2.4-3.9,2.4c-2.4,0-4.4-1-6.5-2.9c-1.6-1.3-2.6-2.9-3.1-4.7
	c-0.5,0.8-1,1.8-1.6,2.6c-2.1,3.4-4.2,6.8-6.3,9.7c-2.1,3.1-3.9,5.8-5.5,8.4s-2.9,4.4-3.4,5.5c-0.8,1.3-1.8,2.9-3.4,5
	c-1.3,1.8-2.6,3.4-3.9,4.2c-0.5,0.5-1.3,1-2.6,1.3c-1,0.5-1.8,0.8-2.6,0.8c-0.5,0-1.3-0.3-2.4-0.5s-2.1-0.8-3.1-1.3
	c-1-0.5-1.8-1.3-2.9-1.8c-0.3-0.5-0.8-1.3-0.8-1.8c-0.3-0.5-0.3-1.3-0.3-1.8c0-0.5,0-1.3,0-1.8c0-2.9,0.8-6.3,2.4-9.9
	c1.6-3.7,3.4-7.3,5.2-11c1.8-3.7,3.7-7.3,5.2-10.7s2.4-6.3,2.4-8.6c0-1.3-0.5-2.1-1.6-2.9c-1-0.8-2.4-1.6-3.4-2.4
	c-0.8-0.5-1.3-1-2.1-1.6v0.3c0,1.3-0.5,3.7-1.6,6.5c-1,2.9-2.1,6-3.7,8.9c-1.3,3.1-2.9,6-4.2,8.9c-1.3,2.9-2.6,4.7-3.4,6
	c-0.5,0.8-1.3,1-2.1,1c-0.8,0-1.3-0.3-2.1-0.5c-0.8-0.3-1.3-0.5-1.8-1l-2.1-0.5c-1.6-0.8-2.6-2.4-3.1-4.4c-0.5-2.4-0.5-4.2-0.5-5.8
	c0-2.1,0.3-4.2,0.8-6.5c0.5-2.4,0.8-4.2,0.8-5.5c0-0.3,0-0.5-0.3-0.8c-0.5,0.8-1.3,2.4-2.4,4.4s-2.4,4.4-3.7,6.5
	c-1.3,2.4-2.9,4.2-4.2,6c-1.6,1.8-2.9,2.6-3.9,2.6c-0.5,0-1.3-0.3-1.8-0.5c-0.5-0.3-1.3-0.5-1.8-0.8c-1.6-0.8-2.9-1.6-3.7-2.4
	c-0.8-0.8-1.3-1.6-1.6-2.4c0-0.3,0-0.5-0.3-0.5c-0.3,0.8-0.8,1.6-1,2.4c-1.8,3.9-3.9,7.6-5.8,11c-1.8,3.4-3.1,6-3.9,7.6
	c-0.5,1-1.6,3.4-3.1,6.8c-1.6,3.4-3.1,7.1-5.2,10.7c-1.8,3.7-3.7,7.1-5.5,9.7s-3.4,4.4-4.2,4.4c-1,0-2.4-0.5-3.7-1.3
	c-1.6-0.8-3.1-1.6-4.2-2.6c-1-0.8-1.8-1.8-2.6-2.9c-0.5-1-1-2.1-1.3-3.4c-0.3-1.3-0.3-2.9-0.3-5c0-5.5,0.8-11.2,2.1-16.7
	c1-4.2,2.4-8.6,3.4-12.6c-1,1.8-1.8,3.4-2.6,5.2c-1.8,3.4-3.1,6-3.9,7.6c-0.5,1-1.6,3.4-3.1,6.8c-1.6,3.4-3.1,7.1-5.2,10.7
	c-1.8,3.7-3.7,7.1-5.5,9.7c-1.8,2.6-3.1,4.4-4.2,4.4c-1,0-2.4-0.5-3.7-1.3c-1.6-0.8-3.1-1.6-4.2-2.6c-1-0.8-1.8-1.8-2.6-2.9
	c-0.5-1-1-2.1-1.3-3.4s-0.3-2.9-0.3-5c0-5.5,0.8-11.2,2.1-16.7c0.8-3.4,1.8-6.8,2.6-10.2c-0.3,0.3-0.3,0.5-0.5,0.5
	c-1.6,2.4-3.1,4.2-5,5.5c-1.8,1.6-3.4,2.4-5,2.4c-0.8,0-1.8-0.3-2.9-0.8s-2.4-1-3.4-1.8c-1-0.8-2.1-1.6-2.6-2.6c-0.8-1-1-2.1-1-3.1
	c0-2.6,0.3-5.2,0.5-8.1c0.3-2.9,0.8-5.5,1.6-7.8c0-0.3,0.3-0.8,0.3-1c0-0.5,0.3-0.8,0.3-1v-0.5c-1,1-2.1,2.4-3.4,3.9
	c-1.3,1.8-2.6,3.4-4.2,5.2c-1.6,1.8-2.9,3.1-4.4,4.4c-1.6,1.3-2.9,1.8-3.9,1.8c-2.6-1.3-5-2.4-6.3-3.7c-1.6-1.3-2.4-3.7-2.4-7.1
	c0-2.6,0.5-5.2,1.8-7.8c1.3-2.9,2.9-5.5,4.7-7.8s4.2-4.4,6.8-5.8c2.6-1.6,5-2.4,7.6-2.4c1.6,0,3.4,0.3,5.2,0.8
	c1.8,0.5,3.7,1,5.2,1.3c0.3-0.3,0.5-0.8,0.8-1c0.3-0.3,0.8-0.5,1.3-0.5s0.8,0,1,0.3l0.3,0.3c0,0,0.3,0.3,0.8,0.3c0,0,0.3,0,0.3-0.3
	l0.3,0.5c0.5,0,1,0,1.3-0.3l1,0.8c0.5-0.3,1,0,1,0.8c0.3,0.8,0.3,1.3,0.3,1.6c0,0.8-0.3,1.6-0.5,2.9c-0.5,1.3-1,2.4-1.6,3.7
	s-1,2.6-1.6,3.7c-0.5,1-0.8,1.8-1,2.4c-0.3,1-0.8,2.6-1.6,4.7c-0.8,2.1-1.3,4.4-1.8,6.8c-0.8,2.4-1.3,4.7-1.6,7.1
	c-0.5,2.4-0.5,3.9-0.5,5c0,0.3,0,0.3,0,0.5c0,0,0,0.3,0,0.5c0.8,0,1.8-0.8,3.1-2.4c1.3-1.3,2.6-3.1,4.2-5.2c1.6-2.1,3.1-4.4,5-6.8
	c1.8-2.6,3.4-5,4.7-7.3c1.6-2.4,2.9-4.4,3.9-6.3c1-1.8,1.8-3.1,2.4-3.9l0,0c0.3-0.5,0.5-1.3,0.8-1.8c2.4-5.2,5-10.7,7.8-16.5
	s5.8-11,8.6-15.4c2.9-4.7,5.8-8.4,8.4-11.5c2.6-3.1,5-4.4,7.1-4.4c0.3,0,0.8,0,1.3,0.3c0.5,0,1.3,0.3,2.1,0.5
	c0.8,0.3,1.3,0.3,1.8,0.5c0.5,0.3,0.8,0.5,0.8,0.5c0.3,0,0.8,0,1,0.3c0.3,0.3,0.5,0.5,0.5,1s0,1-0.3,1.3c0.5,0.8,0.8,1.3,1,1.8
	c0.3,0.5,0.3,1.3,0.3,2.1c0,3.1-0.8,6.3-2.1,9.4c-1.3,3.1-3.1,6.5-5.2,9.7s-4.2,6.3-6.8,8.9c-2.4,2.9-4.4,5.5-6.5,7.6
	c-1.3,1.6-3.1,3.4-5,5s-3.4,3.4-4.2,5.2c-1.8,3.4-3.7,7.6-5.8,12.6s-3.9,10.2-5.5,15.4c-1.8,5.2-3.1,10.7-4.4,15.7
	c-1.3,5.2-1.8,9.7-1.8,13.3v1.8l0.5-0.3c1.6-2.6,3.1-5.2,4.4-8.1c1.3-2.9,2.6-5.5,3.9-8.4c1.3-2.6,2.9-6,5.5-10.7
	c2.4-4.4,5-9.4,7.8-14.4c2.9-5,5.8-9.7,8.4-14.1c2.6-4.2,4.7-7.3,6.3-9.4c0,0,0-0.3,0.3-0.3c2.4-5.2,5-10.7,7.8-16.5
	c2.9-5.8,6.8-10.5,9.7-15.2s5.8-8.4,8.4-11.5s5-4.4,7.1-4.4c0.3,0,0.8,0,1.3,0.3c0.5,0,1.3,0.3,2.1,0.5c0.8,0.3,1.3,0.3,1.8,0.5
	c0.5,0.3,0.8,0.5,0.8,0.5c0.3,0,0.8,0,1,0.3c0.5,0,0.8,0.5,0.8,0.8c0,0.5,0,1-0.3,1.3c0.3,0.8,0.8,1.3,1,1.8s0.3,1.3,0.3,2.1
	c0,3.1-0.8,6.3-2.1,9.4c-1.3,3.1-3.1,6.5-5.2,9.7c-2.1,3.1-4.2,6.3-6.8,8.9c-2.4,2.9-4.4,5.5-6.5,7.6c-1.3,1.6-3.1,3.4-5,5
	c-1.8,1.6-3.4,3.4-4.2,5.2c-1.8,3.4-3.7,7.6-5.8,12.6s-3.9,10.2-5.5,15.4c-1.8,5.2-3.1,10.7-4.4,15.7c-1.3,5.2-1.8,9.7-1.8,13.3v1.8
	l0.5-0.3c1.6-2.6,3.1-5.2,4.4-8.1c1.3-2.9,2.6-5.5,3.9-8.4c1.3-2.6,2.9-6,5.5-10.7c2.4-4.4,5-9.4,7.8-14.4c2.9-4.7,5.5-9.4,8.1-13.6
	c0-0.5,0-1,0.3-1.6c0.3-2.1,0.5-4.2,1-6.3s1.3-4.2,1.8-5.8c0.8-1.8,1.6-2.9,2.9-3.1l0.5,0.3l0.8-0.3l0.3,0.5l0.8,0.3l0.3-0.3
	c0.3,0.3,0.3,0.8,0.3,1.3l0.5-0.8h0.3c0,0.5,0,1,0.3,1.3l0.5-1.3h0.3c0.3,0,0.5,0.3,0.5,0.5c0,0.5,0.3,0.8,0.3,1l0.3-1h0.3
	c0.8,0.8,1,1.3,1,1.8c0,1-0.3,2.4-0.5,4.4c-0.5,2.1-1,4.4-1.6,6.8c-0.5,2.4-1.3,4.7-1.8,7.1c-0.5,2.1-1,3.9-1.3,5
	c1.3-1,2.4-2.1,3.1-3.1c1-1,1.8-2.4,2.9-3.4c-0.8,1.3-1.6,2.4-2.4,3.4c-0.8,1-1.6,2.1-2.6,3.1v0.3c1.3-1,2.6-2.1,3.4-3.7
	s1.8-2.9,3.1-4.2c-0.5,1-1.3,1.8-1.8,2.9c-0.8,0.8-1.3,1.8-1.8,2.9c0,0.3-0.3,0.8-0.8,1.3c-0.5,0.5-1,1-1,1.3c2.9-2.9,5.5-6,7.6-9.7
	c-1,1.8-2.1,3.7-3.1,5.2l0.3,0.3c1-1,2.1-2.4,3.1-3.9c1-1.6,2.1-3.1,3.1-5c1-1.8,1.8-3.4,2.9-5.2c0.8-1.8,1.6-3.1,1.8-4.4
	c0.5-1.3,0.8-2.9,1.3-4.4c0.3-1.6,0.8-3.1,1.6-4.4c0-0.5,0.3-1.6,0.8-2.9c0.5-1.3,0.8-2.1,1.3-2.4l0.3,0.5l0.5-0.5l0.5,0.8l0.8-0.3
	l0.3,0.5l1-0.3c0.3,0.3,0.5,0.5,0.8,0.5c0.5,0,0.8,0.5,0.8,0.8c0,0.5,0,0.8,0,1.3s0,1.6-0.3,3.1c-0.3,1.6-0.5,3.1-0.8,4.7
	c-0.3,1.8-0.8,3.4-1,5c-0.5,1.6-0.8,2.9-0.8,3.4c-0.8,3.4-1.6,6.8-2.1,10.5c-0.5,3.4-0.8,7.1-0.8,10.7v1.3l0.5-0.3
	c3.4-4.2,6.5-8.6,8.9-13.6c2.4-4.4,4.4-8.9,6.8-13.3c-0.3-0.3-0.5-0.3-0.5-0.5c-1-1-1.6-2.6-1.6-4.4c0-0.8,0-1.8,0.3-3.1
	s0.5-2.6,1-3.9c0.5-1.3,1-2.4,1.6-3.4c0.5-1,1.6-1.6,2.4-1.6c0,0,0.5,0,1,0.3c0.5,0,1.3,0.3,1.8,0.5c0.5,0.3,1,0.3,1.6,0.5
	c0.5,0,0.8,0.3,0.8,0.3v0.3v0.3c0,2.1-0.5,3.9-1.3,5.8c-0.8,1.8-1.3,3.7-1.3,5.8c0,2.1,0.5,3.7,1.6,4.4c1,1,2.4,1.8,3.9,2.6
	c1.3,0.8,2.6,1.6,3.9,2.6c1,1,1.6,2.4,1.6,4.2c0,1.8-0.8,4.2-2.1,7.6c-1.3,3.1-3.1,6.8-5,10.5s-3.7,7.6-5.2,11.5s-2.6,7.3-3.1,10.5
	c0.8,0,2.1-1,3.9-3.1c1.8-1.8,3.9-4.4,6-7.3c2.4-2.9,4.7-6,7.1-9.4c2.4-3.4,4.7-6.5,6.8-9.7c2.1-3.1,3.9-5.8,5.5-8.1
	c0.5-0.8,1-1.6,1.3-2.1c0.8-2.4,1.3-4.4,2.4-6.8c1-2.6,2.1-5,3.1-7.3c1-2.4,2.1-4.2,2.9-6l1.8-1.3l0.3,0.5l0.8-0.5
	c-0.3,0.3-0.3,0.8,0,1c0.3-0.3,0.5-0.5,0.5-0.5c0.3-0.3,0.3-0.3,0.5-0.5v0.3v0.3c0,0,0,0.3-0.3,0.3l1.6-0.8l1.3,0.8l-0.5,1
	c0,0.5,0,0.8,0,1.3c0.3,0.3,0.3,0.8,0,1.3c-0.5,2.1-1.3,4.2-2.4,6.5c-0.8,2.1-1.8,4.2-2.6,6.5c-0.8,2.1-1.3,4.4-1.8,6.8
	c1.3,3.4,1,5.8,1,8.1v0.8c1-0.5,2.4-1.8,3.9-3.4c1.6-1.8,2.9-3.7,4.4-5.5c1.6-1.8,2.9-3.9,4.4-5.8c0.3-0.5,0.8-0.8,1-1.3
	c0.5-1,0.8-2.1,1.3-3.1c1.6-3.1,3.4-6,5.8-8.4c2.4-2.4,4.7-3.7,7.3-3.7c1,0,1.8,0,2.4,0.3c2.1,0.8,3.7,1.3,5.2,1.8s2.6,1.3,3.7,2.1
	c1,0.8,1.6,2.1,2.1,3.7c0.5,1.6,0.5,3.7,0.5,6.5c0,1,0,2.1-0.3,3.1s-0.3,2.1-0.3,3.1v0.8h0.3h0.3c0.8,0,2.4-0.5,4.4-1.6
	c2.1-1,4.4-2.4,6.8-3.9c2.4-1.6,4.4-2.9,6.5-4.4C257.4,116.1,259,115,260,114.5z M168.5,127L168.5,127l0.3-1.3h-0.3V127z M165.8,126
	c0.3-0.5,0.3-0.8,0.3-1c0-0.3,0-0.5-0.3-0.5C165.8,125.2,165.8,125.7,165.8,126z M141.8,108.7L141.8,108.7c0.3-0.3,0.5-0.5,0.5-0.8
	s0.3-0.8,0.3-1h-0.3L141.8,108.7z M139.9,112.4l0.5-1.8l0,0C140.2,111.3,139.9,112.1,139.9,112.4z M139.2,105.9c0,0,0.3-0.3,0.3-0.5
	h-0.3V105.9z M124.8,79.2L124.8,79.2l0.3-0.8h-0.3V79.2z M100.2,115.3c1.3-1.3,3.1-3.1,4.7-5.2c1.8-2.1,3.7-4.2,5.5-6.5
	c1.8-2.4,3.7-5,5.2-7.6c1.8-2.6,3.1-5.2,4.4-7.8c0,0.3,0,0.5,0,0.5s0,0.3,0,0.5l0.3,0.3c0.8-2.1,1.6-3.9,2.6-5.8
	c0.8-1.8,1.3-3.9,1.3-6c0-0.3,0-0.5,0-0.8s0-0.5,0-0.8H124c0,2.4-0.3,4.2-0.5,5.2c-0.3,1.3-0.8,2.4-1.3,3.1c1-2.6,1.6-5,1.6-7.3
	c0-0.5,0-1-0.3-1.3c0,0.8,0,1.3,0,2.1s-0.3,1.3-0.3,2.1c0,0.8-0.5,2.1-1.3,4.2c-0.8,1.8-1.6,3.9-2.9,5.8c-1,2.1-2.1,3.9-3.1,5.5
	c-1,1.6-1.8,2.6-2.6,3.1c0.8-1.6,1.8-3.1,2.9-4.7c1-1.6,2.1-3.4,3.1-5.2s1.8-3.7,2.6-5.5c0.5-1.8,1-3.7,1-5.5v-0.8
	c-0.5,0.5-0.8,1.3-0.8,2.1c0,0.8,0,1.6-0.3,2.4c0-0.8,0-1.3,0.3-1.8c0.3-0.5,0.3-1.3,0-1.8c0,2.1-0.3,3.7-0.8,5.2
	c-0.5,1.6-1.3,2.9-2.1,4.4c0.5-1.3,1-2.6,1.6-4.2c0.5-1.3,0.8-2.9,0.8-4.2v-0.5c-0.3,0.3-0.5,0.8-0.8,1.8s-0.5,1.8-0.8,2.4
	c0-0.5,0.3-1,0.3-1.3c0-0.5,0-0.8,0.3-1h-0.3c-0.8,1-1.8,2.9-3.7,5.5c-1.8,2.6-3.7,5.5-5.2,8.4c-2.1,3.1-3.7,5.8-5,8.4
	c-1.3,2.6-2.1,4.2-2.4,5h-0.3c-0.3,0.5-0.5,1-0.8,1.3c-0.3,0.5-0.5,1.3-0.8,1.8c-0.3,0.5-0.5,1.3-1,1.8l0.3,0.3
	c1.6-1.8,3.1-3.7,4.4-5.5c1.3-1.8,2.9-3.7,4.4-5.2v0.5c-0.5,0.5-1.3,1.6-2.4,2.6c-1,1-2.1,2.4-3.1,3.7c-1,1.3-2.1,2.6-2.9,3.7
	c-0.8,1-1.3,2.1-1.8,2.6V115.3z M93.6,79.2L93.6,79.2l0.3-0.8h-0.3V79.2z M69.1,115.3c1.3-1.3,3.1-3.1,4.7-5.2
	c1.8-2.1,3.7-4.2,5.5-6.5c1.8-2.4,3.7-5,5.2-7.6c1.8-2.6,3.1-5.2,4.4-7.8c0,0.3,0,0.5,0,0.5s0,0.3,0,0.5l0.3,0.3
	c0.8-2.1,1.6-3.9,2.6-5.8c0.8-1.8,1.3-3.9,1.3-6c0-0.3,0-0.5,0-0.8s0-0.5,0-0.8h-0.3c0,2.4-0.3,4.2-0.5,5.2
	c-0.3,1.3-0.8,2.4-1.3,3.1c1-2.6,1.6-5,1.6-7.3c0-0.5,0-1-0.3-1.3c0,0.8,0,1.3,0,2.1s-0.3,1.3-0.3,2.1c0,0.8-0.5,2.1-1.3,4.2
	c-0.8,1.8-1.6,3.9-2.9,5.8c-1.3,2.1-2.4,3.9-3.4,5.8c-1,1.6-1.8,2.6-2.6,3.1c0.8-1.6,1.8-3.1,2.9-4.7c1-1.6,2.1-3.4,3.1-5.2
	c1-1.8,1.8-3.7,2.6-5.5c0.5-1.8,1-3.7,1-5.5v-1c-0.3,0.8-0.3,1.6-0.3,2.4s0,1.6-0.3,2.4c0-0.8,0-1.3,0.3-1.8s0.3-1.3,0-1.8
	c0,2.1-0.3,3.7-0.8,5.2c-1,0.8-1.6,2.4-2.4,3.7c0.5-1.3,1-2.6,1.6-4.2c0.5-1.3,0.8-2.9,0.8-4.2l0,0c-0.3,0.3-0.5,0.8-0.8,1.8
	s-0.5,1.8-0.8,2.4c0-0.5,0.3-1,0.3-1.3c0-0.5,0-0.8,0.3-1h-0.3c-0.8,1-1.8,2.9-3.7,5.5s-3.7,5.5-5.2,8.4c-1.8,3.1-3.4,5.8-5,8.4
	c-1.6,2.6-2.1,4.2-2.4,5l-0.3,0.3c-0.3,0.5-0.5,1-0.8,1.3c-0.3,0.5-0.5,1.3-0.8,1.8c-0.3,0.5-0.5,1.3-1,1.8l0.3,0.3
	c1.6-1.8,3.1-3.7,4.4-5.5s2.9-3.7,4.4-5.2l0,0.3c-0.5,0.5-1.3,1.6-2.4,2.6c-1,1-2.1,2.4-3.1,3.7c-1,1.3-2.1,2.6-2.9,3.7
	c-0.8,1-1.3,2.1-1.8,2.6C69.1,115,69.1,115.3,69.1,115.3z M2.9,133.1c0,0.3-0.3,0.8-0.3,1s0,0.5,0,1s0,0.8,0.3,1c0-0.5,0-1,0-1.6
	C2.6,134.1,2.9,133.6,2.9,133.1z M3.1,126.5L3.1,126.5c-1.3,2.9-1.8,5.8-1.8,8.4c0,1,0.3,2.1,0.5,2.9c0-0.5-0.3-1.6-0.3-2.6
	C1.6,132,2.1,129.1,3.1,126.5z M5.5,134.4c-0.3,1.3-0.3,2.1-0.3,2.6v1c0-0.5,0.3-1.3,0.3-1.8C5.5,135.7,5.5,134.9,5.5,134.4z
	 M24.3,143.3c-0.3,0.8-0.5,1.6-0.5,2.6l0.3,1.3c0-0.5,0.3-1.3,0.3-1.8C24.3,144.8,24.3,144,24.3,143.3L24.3,143.3z M26.7,145.4
	c0,0.3-0.3,0.8-0.3,1s0,0.5,0,1v0.5c0.3-1,0.3-1.6,0.3-1.8V145.4z M27.2,125.5L27.2,125.5c-0.5,0.5-0.8,1.8-1.3,3.7
	c-0.5,2.1-1,4.4-1.6,6.8c-0.5,2.4-1,4.4-1.3,6.5c-0.3,1.8-0.5,2.9-0.5,3.4c0,0.8,0.3,1.3,0.5,2.1c0.3-3.9,0.8-7.6,1.6-11.2
	C25.4,132.8,26.2,129.1,27.2,125.5z M29.6,114.8L29.6,114.8c-2.4-0.3-4.7,0.5-7.1,2.4c-2.4,1.6-4.7,3.7-6.8,6
	c-2.1,2.6-3.7,5.2-5.2,7.8c-1.3,2.9-2.1,5.2-2.1,7.1v1c0.5-0.3,1.3-0.8,2.1-1.6v0.3c-0.3,0.3-0.5,0.5-1,1s-0.8,0.8-0.8,1
	c0.5-0.3,1-0.5,1.6-1c0.3-0.5,0.8-0.8,1.3-1c-0.5,0.8-1,1.3-1.3,1.6l-0.3,0.8c1.3-1.3,2.4-2.4,3.7-3.4s2.4-2.4,3.1-3.7
	c-0.3,0.5-0.8,1.3-1.6,2.4c-0.8,1-1.3,1.6-1.6,2.1l0.3,0.3c0.5-0.5,1.3-1.6,2.9-3.1c1.3-1.6,2.9-3.1,4.2-5c1.3-1.8,2.6-3.4,3.9-5
	c1.3-1.6,1.8-2.6,1.8-3.1c-1.3,1.6-2.6,2.9-3.7,4.4c-1,1.6-2.1,2.6-3.4,3.9c0-0.3,0.5-1,1-1.6c0.5-0.8,1.3-1.6,1.8-2.4
	s1.3-1.6,1.8-2.4c0.5-0.8,1-1.3,1.6-1.6c1-1.3,1.6-2.4,2.1-3.7C28.2,117.1,28.8,115.8,29.6,114.8z M45.3,132.5L45.3,132.5
	c0.3-0.3,0.8-1,1.6-2.1c0.8-1.3,1.6-2.4,2.6-3.9c0.3-0.5,0.5-1,0.8-1.3c0.5-1.6,1.3-2.9,2.1-4.4c-1,1.6-1.8,3.4-2.9,5
	C48.1,128.1,46.8,130.4,45.3,132.5z M42.1,165.5L42.1,165.5c-0.3,1.3-0.3,2.6-0.8,4.2s-0.5,2.9-0.5,4.2c0,0.8,0,1.3,0,2.1
	c0,0.5,0,1.3,0,2.1c0-1.6,0-3.4,0.3-5c0.3-1.8,0.3-3.4,0.3-5c0.3-0.3,0.3-0.8,0.3-1C41.6,166.8,42.1,165.8,42.1,165.5z M45,167.8
	c-1,3.1-1.3,6.5-1.3,9.9c0,0.5,0,1,0.3,1.3c0-2.1,0.3-3.9,0.5-5.8C44.5,171.5,44.7,169.7,45,167.8z M47.1,139.1
	c0,0.3-0.3,0.5-0.3,0.8c-0.3,0.8-0.8,1.3-1,1.8c-1,3.7-2.1,7.6-2.9,11.5c-1,4.4-1.8,8.6-2.6,12.6c-0.5,3.9-1,7.1-1,9.4
	c0,1.8,0.3,3.4,0.8,4.7c-0.3-0.5-0.3-1.6-0.5-2.6c0-1,0-1.8,0-2.4c0-5.8,0.8-11.8,2.6-18.3C43.7,150.3,45.5,144.6,47.1,139.1z
	 M82.1,123.1c0.5-1,0.8-2.1,1.3-3.1c-5.8,9.9-11.8,19.9-17.3,29.8c-6.3,10.7-12.3,22-17.8,33.2c1.3-1.3,2.9-3.7,4.2-6.5
	c1.3-2.9,2.4-5.2,3.4-7.3c4.4-8.9,9.4-17.5,14.4-25.9C74.3,136.7,78.2,129.9,82.1,123.1z M73,165.5L73,165.5
	c-0.3,1.3-0.3,2.6-0.8,4.2c-0.5,1.6-0.5,2.9-0.5,4.2c0,0.8,0,1.3,0,2.1c0,0.5,0,1.3,0,2.1c0-1.6,0-3.4,0.3-5c0.3-1.8,0.3-3.4,0.3-5
	c0.3-0.3,0.3-0.8,0.3-1C72.5,166.8,73,165.8,73,165.5z M75.9,167.8c-1,3.1-1.3,6.5-1.3,9.9c0,0.5,0,1,0.3,1.3c0-2.1,0.3-3.9,0.5-5.8
	C75.3,171.5,75.6,169.7,75.9,167.8z M78.2,138.8c0.3-1.3,0.8-2.4,1.3-3.7c0.5-1,0.8-2.4,1-3.4c-0.5,1.3-1,2.4-1.8,3.7
	c-0.5,1.6-1,3.1-1.8,5.2c-1.3,3.9-2.4,8.1-3.4,12.6c-1,4.4-1.8,8.6-2.6,12.6c-0.5,3.9-1,7.1-1,9.4c0,1.8,0.3,3.4,0.8,4.7
	c-0.3-0.5-0.3-1.6-0.5-2.6c0-1,0-1.8,0-2.4c0-5.8,0.8-11.8,2.6-18.3C74.8,150.1,76.4,144.3,78.2,138.8z M111.2,123.1
	c0,0.3,0,0.8-0.3,1c0.3-0.5,0.5-1,1-1.3c0.8-2.4,1-4.4,1.3-6.3c0,0,0,0.3-0.3,0.3C112.2,118.7,111.7,120.8,111.2,123.1z
	 M111.2,126.5c0-0.3,0.3-0.8,0.3-1c-0.3,0.3-0.5,0.8-0.8,1c0,0.3,0,0.5,0,0.8C110.9,127,110.9,126.8,111.2,126.5z M109.1,130.2
	C109.1,129.9,109.1,129.9,109.1,130.2c0-0.3,0-0.5,0-0.8c-3.9,6.8-7.8,13.6-11.8,20.4C91,160.5,85,171.8,79.5,183
	c1.3-1.3,2.9-3.7,4.2-6.5c1.3-2.9,2.4-5.2,3.4-7.3c4.4-8.9,9.4-17.5,14.4-25.9C103.8,139.1,106.5,134.6,109.1,130.2z M111.2,137.5
	c-0.3-0.5-0.3-1.3-0.3-2.1c0-0.8,0-1.3-0.3-1.8c0,0.3-0.3,0.3-0.3,0.5s0,0.5,0,0.8c0,0.5,0,1,0.3,1.6
	C110.9,136.7,110.9,137.2,111.2,137.5z M112,131L112,131c0,0.8-0.3,1.6-0.3,2.4c0,0.8,0,1.6,0,2.6c0-0.5,0.3-1.3,0.3-2.6
	C112,132.3,112,131.5,112,131z M113.5,134.6L113.5,134.6l-0.3,1.8h0.3C113.5,136.5,113.5,134.6,113.5,134.6z M114.8,130.2
	c-0.3,1.3-0.5,2.6-0.5,3.7c0,1.3-0.3,2.4-0.3,3.7c0.3-1.3,0.3-2.4,0.3-3.7C114.6,132.8,114.8,131.5,114.8,130.2z M115.6,126.8
	c0,0.3-0.3,0.5-0.3,1C115.6,127.6,115.6,127.3,115.6,126.8z M136.8,125c0,0.3,0,0.8-0.3,0.8h0.3V125L136.8,125z M136.3,120.5l0.3-1
	h-0.3V120.5z M133.4,140.1c-0.3-1-0.3-2.1-0.3-2.9c0-1.3,0-2.9,0.3-4.4c0.3-1.8,0.3-3.4,0.5-5.2s0.5-3.4,1-5c0.5-1.6,0.8-3.1,1-4.4
	h-0.3c-0.8,3.1-1.6,6.3-2.4,9.4c-0.8,3.1-1,6.3-1,9.7c0,2.1,0.3,3.9,1,5.8C133.7,142,133.7,141.2,133.4,140.1z M135.8,122.3
	l-0.3,0.8l0.3,0.3C135.8,122.9,135.8,122.6,135.8,122.3L135.8,122.3z M134.4,137.2L134.4,137.2l-0.3,1.6h0.3V137.2z M135.2,137.8
	L135.2,137.8l-0.3,1.8h0.3V137.8z M135.5,124.2c-0.5,2.4-0.8,4.4-1.3,6.8c-0.3,2.4-0.5,4.4-0.5,7.1v1c0-0.8,0.3-1.8,0.5-3.1
	s0.3-2.9,0.5-4.4c0.3-1.6,0.3-2.9,0.5-4.2C135.2,125.7,135.5,124.7,135.5,124.2z M135.5,133.1c0-1,0.3-1.8,0.5-2.6
	c0.3-0.8,0.3-1.8,0.3-2.6c-0.3,1-0.5,1.8-0.5,2.6C135.8,131.2,135.5,132.3,135.5,133.1z M138.1,124.2c-0.3,0.5-0.3,0.8-0.3,0.8
	c-0.3,0.8-0.5,1.6-0.8,2.9s-0.5,2.6-0.5,3.9c-0.3,1.3-0.3,2.6-0.3,3.9s0,2.4,0,3.1v2.1c0.3-2.9,0.5-5.8,0.8-8.4
	C137.1,129.7,137.6,126.8,138.1,124.2z M144.9,136.7c0.8-1.3,1.3-2.4,1.8-3.4c0.5-1,0.8-1.6,0.8-1.6v-0.3h-0.3
	c-1,1.8-1.8,3.7-3.1,5.5c-1.3,1.8-2.4,3.4-3.7,5.2v0.3h0.3c0.3-0.3,0.8-1,1.6-2.1C143.3,139.3,144.1,138,144.9,136.7z M147.8,134.4
	c0.3-0.5,0.5-1,0.5-1v-0.3v-0.3c-0.8,1-1.6,2.1-2.4,3.4s-1.3,2.6-1.8,3.7l0.3,0.3c0-0.3,0.5-0.8,0.8-1.3c0.5-0.5,1-1.3,1.3-2.1
	C147,135.7,147.3,134.9,147.8,134.4z M147.3,136.5L147.3,136.5l-0.3,0.8C147,137,147.3,136.7,147.3,136.5z M148.6,133.6
	c-0.5,1-0.8,1.6-1.3,2.1c0.3-0.3,0.5-0.5,0.8-0.8C148.6,134.6,148.6,134.1,148.6,133.6z M156.2,107.4c-0.3,1.3-0.5,2.6-0.5,3.9v0.8
	L156.2,107.4z M155.6,117.6c-0.5,0.8-1,1.8-1.3,3.1c-0.5,1.3-1,2.1-1.6,2.9c0.5,0,1-1,1.8-2.6C155.4,119.5,155.6,118.2,155.6,117.6z
	 M155.9,116.6c-0.3,0-0.3-0.3-0.5-0.3c0,0.3,0,0.3-0.3,0.3c-0.5,1-0.8,1.6-1,1.8c-0.5,0.5-0.8,1.3-1.3,2.4c-0.3,0.3-0.8,1-1,1.6
	c-0.3,0.8-0.5,1.3-0.8,1.8v0.3c0,0,0.5-0.5,1-1.3c0.5-0.8,1-1.8,1.6-2.6c0.5-1,1-1.8,1.3-2.9C155.6,117.4,155.6,116.8,155.9,116.6z
	 M156.9,101.4l-0.5,0.5c-0.5,1.6-1,3.1-1.6,4.7c-0.5,1.3-0.8,3.1-0.8,4.7c0,0.5,0,1,0.3,1.3c0-2.1,0.3-3.9,0.5-5.8
	C155.4,104.8,156.2,103,156.9,101.4z M163.2,129.9c0.3-1,0.5-1.8,1-2.9c0.5-0.8,0.8-1.8,0.8-2.9c0-0.5-0.3-1-0.5-1.3
	c0,1.3,0,2.6-0.3,3.7C164,127.3,163.5,128.6,163.2,129.9z M151.2,161.6c-0.3,1.3-0.5,2.9-0.5,4.2v0.8L151.2,161.6z M152,153.7
	c-0.8,1.8-1.3,3.7-1.8,5.5c-0.5,1.8-0.8,3.9-0.8,5.8c0,1,0.3,1.8,0.5,2.4c0-2.6,0.3-5,0.8-7.1C150.9,158.2,151.4,156.1,152,153.7z
	 M152.5,152.2l-0.5,1.3C152.2,153.2,152.5,152.7,152.5,152.2z M153.8,163.9L153.8,163.9c-0.3,0.5-0.5,1-0.5,1.6c0,0.5-0.3,1-0.3,1.6
	h0.3L153.8,163.9z M188.6,133.1c0-0.3,0-0.3,0-0.5c-0.3,0.3-0.5,0.8-0.5,1c0,0.3,0,0.8,0,1.6c0,1,0.3,1.6,0.5,1.8
	C188.6,135.7,188.6,134.4,188.6,133.1z M189.9,131.8c0-0.5,0-0.8,0-1.3c0,0,0,0.3-0.3,0.3c0,0.3,0,0.3,0,0.5c0,1-0.3,2.1-0.3,3.1
	v0.8C189.6,134.1,189.9,133.1,189.9,131.8z M192.8,129.4c-0.3,0.8-0.5,1.8-0.5,2.9c-0.3,1-0.3,2.1-0.3,2.9c0,0.5,0,0.8,0.3,1
	L192.8,129.4z M212.1,117.1L212.1,117.1L212.1,117.1L212.1,117.1z M212.1,117.6L212.1,117.6l0.3-0.3
	C212.1,117.4,212.1,117.6,212.1,117.6z M203.2,129.9c1.3-1.6,2.4-3.1,3.9-5c0.3-0.5,0.5-0.8,1-1.3c0.3-0.5,0.3-1,0.5-1.6
	c-0.8,1-1.6,2.1-2.6,3.1c-1,1.3-2.1,2.9-3.1,3.9c-1,1.3-1.6,2.4-1.8,2.9C201.4,132.3,202.2,131.5,203.2,129.9z M206.1,128.1
	c0.3-0.5,0.8-1,1.3-1.6c0-0.3,0-0.3,0.3-0.5c-0.3,0.3-0.3,0.5-0.5,0.5c-0.8,1-1.6,1.8-2.4,2.9c-0.8,0.8-1.3,1.3-1.3,1.6l0.3,0.3
	l0.5-0.8C204.3,130.2,205.1,129.4,206.1,128.1z M207.9,134.1c0.3-1,0.3-2.4,0.3-3.4c-0.3,0.5-0.8,1-1,1.6v0.3c0,0.8-0.3,1.8-0.3,2.6
	c0,0.8,0,1.3,0,1.8c0,1,0.3,2.1,0.5,3.1l0.3-0.3C207.7,138,207.7,135.9,207.9,134.1z M208.7,136.5c-0.3,0.5-0.3,1,0,1.3V136.5z
	 M209,133.8L209,133.8L209,133.8L209,133.8z M211.6,137c-0.3,0.5-0.3,1,0,1.3V137z M211.9,134.4l-0.3,0.8l0.3,0.5V134.4z
	 M212.1,132.8L212.1,132.8L212.1,132.8v0.3V132.8z M226,135.9c-0.5-0.3-1-0.5-2.1-1c-0.8-0.5-1.8-0.8-2.9-1s-1.8-0.8-2.9-1
	c-0.8-0.5-1.6-0.8-2.4-1c-0.3,1.3-0.5,2.6-0.5,4.2c0,1.3,0,2.9,0,4.2c0,0.8,0.3,1.8,0.5,3.7c0.3,1.8,0.8,2.9,1.3,3.4
	c0.8-0.3,1.8-0.8,2.6-1.6c1-0.8,1.8-1.8,2.6-2.9s1.6-2.1,2.1-3.4C225.5,137.8,226,136.7,226,135.9z M227.8,131.5
	c0.8-1.3,1.3-3.1,1.6-5.5c0.5-2.4,0.5-4.4,0.5-6c0-0.5,0-1.3,0-2.1c0-1-0.3-1.8-0.3-2.9c-0.3-1-0.3-1.8-0.5-2.6
	c-0.3-0.8-0.5-1.3-1-1.6c-0.8,0.3-1.8,0.8-2.6,1.3c-1,0.8-1.8,1.6-2.6,2.4s-1.6,1.8-2.1,2.9c-0.5,1-0.8,1.8-0.8,2.9
	c0,0.8,0,1.6-0.3,2.4c-0.8,0.5-0.8,1.3-0.8,2.1c0,1.6,0.5,3.4,1.6,5c1,1.6,2.6,2.6,4.4,2.6C226,132,226.8,132,227.8,131.5z
	 M231.5,119.7c0-2.1-0.3-3.7-0.8-5.2l-0.3-1l0.3,1.3c0,0.8,0.3,1.3,0.3,2.1s0,1.3,0,2.1c0,1.8,0,3.9-0.3,5.8
	c-0.3,2.1-0.8,3.9-1.3,5.8v0.8c0.3-0.3,0.5-1,0.8-2.1c0.3-1,0.5-2.1,0.8-3.4c0.3-1.3,0.3-2.4,0.5-3.4
	C231.5,121.3,231.5,120.5,231.5,119.7z M231.8,124.7l-0.3,0.3l0.3,0.3V124.7z M232.3,121.8c-0.3,0.3-0.3,0.8,0,1V121.8z
	 M233.8,127.6L233.8,127.6v0.3V127.6z M234.4,125.2l-0.3,0.3v0.3v0.3v-0.8H234.4z M234.4,122.1c0,0.5,0,1.3,0,1.8
	C234.6,123.1,234.6,122.6,234.4,122.1z"/>
</svg>
