<?xml version="1.0" encoding="utf-8"?>
<!-- Generator: Adobe Illustrator 22.1.0, SVG Export Plug-In . SVG Version: 6.00 Build 0)  -->
<svg version="1.1" id="Layer_1" xmlns="http://www.w3.org/2000/svg" xmlns:xlink="http://www.w3.org/1999/xlink" x="0px" y="0px"
	 width="80px" height="80px" viewBox="0 0 80 80" style="enable-background:new 0 0 80 80;" xml:space="preserve">
<style type="text/css">
	.st0{opacity:0.19;enable-background:new    ;}
	.st1{fill:url(#SVGID_1_);}
	.st2{fill:#FFFFFF;}
</style>
<ellipse class="st0" cx="39.5" cy="74.5" rx="17.4" ry="5.5">
<animate  accumulate="none" additive="replace" attributeName="stop-color" calcMode="linear" dur="8s" fill="remove" repeatCount="indefinite" restart="always" values="#9C26F9; #FF1F13; #9C26F9">
	</animate>
<animate  accumulate="none" additive="replace" attributeName="stop-color" calcMode="linear" dur="8s" fill="remove" repeatCount="indefinite" restart="always" values="#7AD2FA; #DE93FF; #7AD2FA">
	</animate>
</ellipse>
<linearGradient id="SVGID_1_" gradientUnits="userSpaceOnUse" x1="26.4761" y1="3.7711" x2="59.9744" y2="61.792">
	<stop  offset="0" style="stop-color:#FC466B"/>
	<stop  offset="1" style="stop-color:#00DBDE"/>
</linearGradient>
<path class="st1" d="M56.4,6.9C51.6,2.1,46.1,0,39.5,0S27.4,2.4,22.6,6.9C18,11.4,15.8,17,15.8,23.8c0,5.5,2.1,12.6,6.5,21.6
	s7.9,15.4,10.5,19c2.6,3.9,4.9,6.9,6.5,9.4l6-8.4c4-5.6,7.9-12.5,11.9-20.9s6-15.1,6-20.6C63.1,17.1,60.9,11.5,56.4,6.9z"/>
<path class="st2" d="M55.3,9.7c1.1-0.1,2.5,1.3,2.6,2.1c0,0.2-0.1,0.4-0.4,0.4c-0.9,0.1-2.7,2.7-2.6,3.4c0,0.2-0.2,0.4-0.4,0.4
	c-0.5,0.1-1.4-0.3-1.4-0.9c-0.1-1.3,0.7-4.1,1.4-4.9C54.7,9.9,54.9,9.7,55.3,9.7z M60.8,17.8c0.7-0.1,1.2,0.1,1.8,0.4
	c0.4,1.8,0.6,3.7,0.6,5.7c0,0.4,0,0.7,0,1.1c-1.2,2.2-3,4.5-5.1,4.7c-2.2,0.2-3.2-0.9-3.3-2.3c0-0.5,0.2-1.4,0.5-2.3
	c-1.7,1.8-4.1,4.3-5.4,4.4c-1.1,0.1-2.2-0.8-2.3-2c0-0.3,0-0.6,0.1-1.1c-1.6,1.7-3.6,3.6-4.7,3.7c-1.1,0.1-2.2-0.8-2.3-2
	c-0.1-1,0.5-3.4,1-5.2c-2.5,2.4-6.2,7.3-6.1,8.4c0,0.4-0.1,0.6-0.4,0.6c-0.6,0.1-1.8-0.8-2-2.3c-0.1-1,2.1-8,3.8-8.2
	c0.8-0.1,1.7,0.7,1.8,1.1c0,0,0,0.1,0,0.1c-1,1.2-2.1,3.1-2.7,5.1c2.2-3.2,6.2-7.3,7.1-7.4c0.8-0.1,1.7,0.7,1.8,1.1c0,0,0,0.1,0,0.1
	c-0.7,0.8-1.7,4.7-1.5,6.1c0,0.3,0.1,0.5,0.3,0.5c0.7-0.1,3.6-3,5-4.6c0.8-2,1.9-4.2,2.5-4.9c0.2-0.2,0.4-0.3,0.6-0.3
	c0.9-0.1,2,0.7,2,1.1c0,0.1,0,0.1,0,0.1c-0.8,0.9-3.5,6.6-3.4,7.8c0,0.1,0.1,0.2,0.2,0.2c0.7-0.1,3.8-3.3,5.1-4.8c0,0,0,0,0-0.1
	C55.5,20.9,58.7,18,60.8,17.8z M60.3,25.2c-1,0.1-1.9,0-2.6-0.2c-0.4,0.9-0.6,2.1-0.5,2.8c0,0.4,0.1,0.6,0.4,0.6
	C58.2,28.3,59.3,26.9,60.3,25.2z M61.8,19.1c-2.2,0.2-4.5,2.6-4.4,3.4c0.1,0.8,1.8,1.1,3.8,1c0.7-1.5,1.2-3,1.1-3.8
	C62.3,19.3,62.2,19.1,61.8,19.1z M38.7,10.8c0-0.4-1.1-1.2-1.9-1.1c-0.3,0-0.5,0.1-0.6,0.3c-3.7,4.6-15.8,21.6-16.9,21.7
	c-0.1,0-0.2-0.1-0.2-0.2c-0.2-1.8,6.1-13.6,5.8-15.8c-0.2-1.5-1.9-3-3.7-2.8c-0.8,0.1-2.1,0.5-3.5,1.1c-0.4,1-0.8,2-1,3
	c2.5-1.4,4.9-2.5,5.8-2.6c0.4,0,0.4,0.1,0.5,0.3c0.2,1.9-5.2,10.8-6.4,15c0.2,1,0.5,2.1,0.8,3.2c0.5,0.4,1.2,0.5,2,0.4
	c2-0.2,8.4-9,12.9-15.7c-2.6,5.7-5.4,12.6-5.3,14.1c0.2,1.5,1.8,2.5,2.6,2.4c0.3,0,0.4-0.2,0.4-0.5c-0.5-3.9,5.2-18.4,8.7-22.9
	C38.7,10.9,38.7,10.8,38.7,10.8z"/>
</svg>
