 <svg  version="1.0" xmlns="http://www.w3.org/2000/svg"  width="266.000000pt" height="90.000000pt" viewBox="0 0 266.000000 90.000000"  preserveAspectRatio="xMidYMid meet">  <g transform="translate(0.000000,90.000000) scale(0.050000,-0.050000)" fill="#307ae6" stroke="none"> <path d="M1979 1453 c-494 -135 -394 -933 118 -933 287 0 459 199 439 509 -20 315 -266 503 -557 424z m255 -172 c174 -106 181 -470 11 -573 -200 -123 -407 22 -407 282 0 263 201 410 396 291z"/> <path d="M400 1385 c-129 -75 -130 -77 -136 -172 l-6 -97 91 63 91 63 0 -361 0 -361 80 0 80 0 0 470 c0 543 13 518 -200 395z"/> <path d="M2800 990 l0 -470 91 0 92 0 -7 310 c-3 171 -1 310 4 310 6 -1 86 -140 179 -310 l168 -310 87 0 86 0 0 470 0 470 -80 0 -80 0 0 -315 c-1 -365 22 -372 -212 60 l-138 254 -95 1 -95 0 0 -470z"/> <path d="M4726 1383 c-122 -71 -125 -75 -125 -158 -1 -100 -3 -99 99 -35 l80 51 0 -361 0 -360 80 0 80 0 0 470 0 470 -45 -2 c-25 -1 -101 -35 -169 -75z"/> <path d="M900 950 l0 -70 260 0 260 0 0 70 0 70 -260 0 -260 0 0 -70z"/> <path d="M3820 950 l0 -70 250 0 250 0 0 70 0 70 -250 0 -250 0 0 -70z"/> </g> </svg> 