 <svg  version="1.0" xmlns="http://www.w3.org/2000/svg"  width="254.000000pt" height="88.000000pt" viewBox="0 0 254.000000 88.000000"  preserveAspectRatio="xMidYMid meet">  <g transform="translate(0.000000,88.000000) scale(0.050000,-0.050000)" fill="#2a7ae6" stroke="none"> <path d="M2456 1341 c-405 -79 -464 -752 -79 -912 316 -133 612 86 609 451 -3 330 -222 521 -530 461z m222 -176 c155 -79 199 -393 73 -524 -161 -168 -391 -104 -453 126 -76 283 148 517 380 398z"/> <path d="M362 895 c-82 -245 -153 -456 -157 -470 -7 -18 18 -25 82 -25 l92 0 32 110 32 110 157 0 157 0 32 -110 32 -110 92 0 c64 0 89 7 82 25 -4 14 -75 225 -157 470 l-148 444 -90 0 -90 0 -148 -444z m287 80 c20 -69 40 -141 46 -160 8 -30 -5 -35 -95 -35 -90 0 -103 5 -95 35 6 19 26 91 46 160 20 69 42 125 49 125 7 0 29 -56 49 -125z"/> <path d="M1220 868 l0 -472 235 8 c272 9 351 38 397 147 56 134 15 311 -78 341 -35 11 -35 14 7 59 54 57 64 195 21 275 -47 87 -134 114 -370 114 l-212 0 0 -472z m435 277 c71 -92 4 -165 -151 -165 l-114 0 4 105 c2 58 4 106 5 107 9 20 237 -23 256 -47z m-3 -340 c142 -95 56 -245 -141 -245 l-111 0 0 130 0 130 115 0 c63 0 125 -7 137 -15z"/> <path d="M3243 985 c9 -476 59 -564 326 -581 299 -19 371 96 371 592 l0 344 -80 0 -80 0 0 -295 c0 -426 -46 -525 -225 -491 -119 23 -135 75 -135 449 l0 337 -92 0 -91 0 6 -355z"/> <path d="M4200 1257 l0 -82 130 10 130 10 0 -397 0 -398 85 0 85 0 0 393 0 394 135 -5 135 -5 0 82 0 81 -350 0 -350 0 0 -83z"/> </g> </svg> 