 <svg  version="1.0" xmlns="http://www.w3.org/2000/svg"  width="278.000000pt" height="88.000000pt" viewBox="0 0 278.000000 88.000000"  preserveAspectRatio="xMidYMid meet">  <g transform="translate(0.000000,88.000000) scale(0.050000,-0.050000)" fill="#3081da" stroke="none"> <path d="M727 1498 c-496 -144 -549 -929 -77 -1151 289 -135 730 40 730 290 0 25 -188 68 -196 45 -54 -162 -316 -240 -475 -141 -220 136 -223 564 -5 725 130 96 377 47 447 -88 31 -59 37 -62 116 -49 120 19 130 38 74 143 -105 198 -373 296 -614 226z"/> <path d="M1970 1476 c-23 -61 -390 -1162 -390 -1169 0 -4 52 -7 115 -7 l116 0 40 143 41 144 198 0 198 0 42 -139 41 -138 115 -6 c63 -3 114 1 113 10 0 9 -89 277 -197 596 l-197 580 -113 6 c-78 4 -115 -2 -122 -20z m190 -472 c33 -111 60 -208 60 -213 0 -6 -58 -11 -130 -11 -71 0 -130 5 -130 12 0 25 127 428 133 422 4 -4 34 -98 67 -210z"/> <path d="M2900 900 l0 -600 110 0 109 0 6 371 5 372 110 -312 110 -311 82 0 83 0 102 288 c57 159 103 297 103 309 0 11 10 27 22 35 17 10 21 -89 15 -369 l-9 -383 106 0 106 0 0 601 0 601 -123 -6 -123 -6 -133 -354 c-73 -195 -138 -360 -144 -366 -7 -6 -74 155 -149 359 l-138 371 -125 0 -125 0 0 -600z"/> <path d="M4340 900 l0 -600 110 0 110 0 0 240 0 240 155 0 c318 0 449 105 449 362 0 278 -120 358 -540 358 l-284 0 0 -600z m564 365 c128 -147 30 -285 -203 -285 l-141 0 0 160 0 160 157 0 c124 0 163 -7 187 -35z"/> </g> </svg> 