 <svg  version="1.0" xmlns="http://www.w3.org/2000/svg"  width="120.000000pt" height="64.000000pt" viewBox="0 0 120.000000 64.000000"  preserveAspectRatio="xMidYMid meet">  <g transform="translate(0.000000,64.000000) scale(0.050000,-0.050000)" fill="#3081da" stroke="none"> <path d="M550 782 c-222 -66 -185 -400 44 -402 59 0 146 61 146 103 0 37 -46 37 -73 -1 -52 -74 -149 -51 -185 43 -50 132 107 265 183 156 19 -27 36 -33 56 -20 66 41 -83 147 -171 121z"/> <path d="M882 590 c-73 -225 -72 -210 -23 -210 24 0 41 16 45 45 10 71 128 75 159 6 13 -28 39 -51 58 -51 32 0 -10 169 -91 365 -36 89 -85 38 -148 -155z m125 25 c19 -68 16 -75 -27 -75 -22 0 -40 7 -40 15 1 38 26 105 40 105 8 0 21 -20 27 -45z"/> <path d="M1260 580 c0 -241 53 -304 64 -75 l6 125 37 -105 c45 -132 80 -133 123 -5 44 134 64 126 54 -20 -8 -107 -5 -120 29 -120 34 0 37 16 31 200 -8 244 -54 282 -115 95 -49 -150 -58 -151 -109 -16 -75 203 -120 174 -120 -79z"/> <path d="M1740 580 c0 -164 5 -200 30 -200 22 0 30 22 30 80 0 74 4 80 56 80 81 0 144 52 144 120 0 85 -47 120 -161 120 l-99 0 0 -200z m190 80 c0 -42 -11 -51 -65 -56 -61 -6 -65 -3 -65 56 0 59 4 62 65 56 54 -5 65 -14 65 -56z"/> </g> </svg> 