 <svg  version="1.0" xmlns="http://www.w3.org/2000/svg"  width="300.000000pt" height="76.000000pt" viewBox="0 0 300.000000 76.000000"  preserveAspectRatio="xMidYMid meet">  <g transform="translate(0.000000,76.000000) scale(0.050000,-0.050000)" fill="#307ae6" stroke="none"> <path d="M1174 1072 c-337 -123 -246 -652 112 -652 176 0 294 137 294 340 0 243 -192 390 -406 312z m221 -132 c65 -60 95 -179 67 -265 -79 -237 -393 -165 -372 85 3 39 7 82 8 96 9 107 211 164 297 84z"/> <path d="M2000 1085 c-350 -65 -278 -665 80 -665 359 0 436 563 90 658 -83 23 -87 23 -170 7z m211 -158 c128 -139 44 -392 -130 -392 -130 0 -181 60 -181 216 0 211 183 314 311 176z"/> <path d="M2500 1023 l0 -67 102 14 101 14 -6 -282 -7 -282 66 0 67 0 -5 275 -4 275 93 -7 c92 -6 93 -5 93 54 l0 61 -250 6 -250 6 0 -67z"/> <path d="M3330 1077 c-333 -121 -248 -657 105 -657 194 0 356 177 205 224 -18 6 -44 -13 -65 -47 -67 -111 -273 -74 -317 58 -74 224 162 448 296 279 48 -62 95 -77 137 -45 109 79 -206 244 -361 188z"/> <path d="M340 748 l0 -333 178 9 c195 9 232 26 275 130 31 74 14 140 -52 201 -37 35 -39 42 -12 64 18 15 31 58 31 102 0 119 -65 159 -263 159 l-157 0 0 -332z m308 187 c38 -61 -9 -105 -110 -103 -91 2 -120 41 -90 121 17 42 171 28 200 -18z m-7 -236 c98 -52 35 -151 -101 -162 l-90 -7 -6 95 -6 95 82 0 c46 0 100 -9 121 -21z"/> <path d="M4032 1064 c-5 -10 -51 -140 -101 -291 -50 -151 -100 -292 -111 -314 -20 -36 -15 -39 59 -39 45 0 79 7 77 15 -23 89 29 145 135 145 120 0 149 -25 149 -130 0 -22 22 -30 81 -30 l80 0 -32 62 c-30 59 -165 449 -180 523 -4 19 -12 44 -19 55 -15 24 -123 27 -138 4z m105 -242 c40 -118 32 -142 -47 -142 -81 0 -80 -5 -36 134 36 114 48 115 83 8z"/> <path d="M4540 750 l0 -330 72 0 71 0 -14 203 c-16 226 3 248 60 68 19 -60 32 -112 29 -115 -2 -4 6 -27 20 -52 49 -91 103 -50 160 120 74 218 88 214 79 -19 l-8 -205 65 0 66 0 0 331 0 331 -72 -6 c-72 -6 -142 -129 -196 -346 -20 -79 -45 -59 -84 65 -76 249 -99 285 -177 285 l-71 0 0 -330z"/> <path d="M5340 750 l0 -330 60 0 60 0 0 137 0 137 108 -4 c157 -7 222 48 222 190 0 158 -58 200 -281 200 l-169 0 0 -330z m316 206 c69 -69 17 -145 -111 -161 l-85 -11 0 98 0 98 86 0 c47 0 97 -11 110 -24z"/> </g> </svg> 