 <svg  version="1.0" xmlns="http://www.w3.org/2000/svg"  width="254.000000pt" height="70.000000pt" viewBox="0 0 254.000000 70.000000"  preserveAspectRatio="xMidYMid meet">  <g transform="translate(0.000000,70.000000) scale(0.050000,-0.050000)" fill="#3081da" stroke="none"> <path d="M490 1279 c-472 -182 -498 -914 -40 -1131 286 -136 730 39 730 287 0 26 -188 71 -196 47 -51 -154 -284 -231 -453 -151 -199 94 -255 483 -96 671 137 163 426 150 516 -24 31 -59 37 -62 116 -49 116 18 125 35 73 140 -103 214 -395 309 -650 210z"/> <path d="M1770 1276 c-30 -81 -390 -1159 -390 -1167 0 -5 52 -9 115 -9 l116 0 39 143 40 144 200 0 200 0 40 -144 39 -143 116 0 c63 0 115 7 115 15 -1 8 -90 276 -198 595 l-197 580 -113 6 c-79 4 -115 -2 -122 -20z m190 -472 c33 -111 60 -208 60 -213 0 -6 -58 -11 -130 -11 -71 0 -130 7 -130 15 0 8 17 69 38 135 21 66 48 159 61 207 30 109 28 111 101 -133z"/> <path d="M2700 700 l0 -600 110 0 109 0 6 371 5 372 110 -312 110 -311 83 0 83 0 103 296 c145 414 145 414 136 -31 l-8 -385 107 0 106 0 0 601 0 601 -123 -6 -124 -6 -140 -376 -140 -376 -142 381 -141 381 -125 0 -125 0 0 -600z"/> <path d="M4140 700 l0 -600 110 0 110 0 0 240 0 240 155 0 c318 0 449 105 449 362 0 278 -120 358 -540 358 l-284 0 0 -600z m564 365 c128 -147 30 -285 -203 -285 l-141 0 0 160 0 160 157 0 c124 0 163 -7 187 -35z"/> </g> </svg> 