 <svg  version="1.0" xmlns="http://www.w3.org/2000/svg"  width="300.000000pt" height="85.000000pt" viewBox="0 0 300.000000 85.000000"  preserveAspectRatio="xMidYMid meet">  <g transform="translate(0.000000,85.000000) scale(0.050000,-0.050000)" fill="#307ae6" stroke="none"> <path d="M560 1327 c-401 -139 -293 -787 131 -787 145 0 329 125 329 224 0 52 -131 47 -164 -6 -72 -117 -293 -107 -358 16 -56 106 -34 324 39 389 97 87 271 70 320 -30 23 -49 34 -54 90 -42 82 18 81 16 47 82 -81 156 -252 217 -434 154z"/> <path d="M1475 1336 c-330 -89 -351 -653 -29 -775 226 -85 478 68 508 309 39 318 -193 544 -479 466z m252 -154 c184 -152 79 -515 -147 -509 -241 6 -315 434 -92 528 55 23 203 12 239 -19z"/> <path d="M3928 1332 c-206 -91 -165 -318 78 -437 119 -59 142 -91 115 -162 -36 -96 -178 -77 -226 30 -29 66 -48 70 -112 20 -95 -73 74 -243 240 -243 290 0 339 321 71 460 -131 68 -189 131 -161 176 31 50 113 53 155 6 38 -41 152 -13 152 37 0 24 -117 121 -147 121 -12 0 -41 5 -63 10 -22 5 -68 -3 -102 -18z"/> <path d="M5326 1322 c-183 -114 -136 -310 102 -430 103 -52 112 -62 112 -125 0 -129 -177 -128 -236 2 -27 60 -39 62 -101 14 -94 -72 74 -243 237 -243 308 0 346 310 59 472 -152 86 -162 97 -137 163 21 57 105 60 144 5 41 -58 166 0 133 61 -53 100 -215 141 -313 81z"/> <path d="M2174 1029 c4 -395 58 -489 283 -489 241 0 302 104 303 515 l0 285 -76 0 -75 0 6 -273 c7 -322 2 -342 -86 -379 -171 -71 -219 9 -219 365 l0 287 -70 0 -70 0 4 -311z"/> <path d="M2980 940 l0 -400 81 0 82 0 -7 180 c-9 270 129 195 268 -145 11 -26 38 -35 105 -35 l90 0 -118 175 -118 175 43 36 c24 20 59 48 77 63 44 36 35 210 -16 278 -45 60 -101 73 -319 73 l-168 0 0 -400z m383 236 c50 -80 3 -139 -121 -151 l-102 -10 0 100 0 101 103 -7 c57 -4 111 -19 120 -33z"/> <path d="M4496 940 l-6 -400 255 0 255 0 0 70 0 70 -190 0 -190 0 0 110 0 110 150 0 150 0 0 70 0 70 -151 0 -151 0 6 83 6 83 175 -4 175 -4 0 71 0 71 -239 0 -239 0 -6 -400z"/> </g> </svg> 