 <svg  version="1.0" xmlns="http://www.w3.org/2000/svg"  width="146.000000pt" height="62.000000pt" viewBox="0 0 146.000000 62.000000"  preserveAspectRatio="xMidYMid meet">  <g transform="translate(0.000000,62.000000) scale(0.050000,-0.050000)" fill="#3081da" stroke="none"> <path d="M336 805 c-174 -188 60 -472 240 -290 63 63 13 97 -54 37 -81 -73 -182 -11 -182 111 0 117 103 176 182 105 67 -60 117 -26 54 37 -74 75 -170 75 -240 0z"/> <path d="M798 834 c-194 -148 -15 -456 201 -345 99 52 118 236 32 322 -55 54 -176 67 -233 23z m191 -78 c82 -117 -31 -294 -141 -221 -73 49 -81 204 -11 244 56 33 119 23 152 -23z"/> <path d="M1200 700 c0 -223 106 -312 241 -203 68 55 87 363 22 363 -40 0 -43 -10 -43 -146 0 -150 -19 -194 -83 -194 -54 0 -77 63 -77 209 0 103 -6 131 -30 131 -24 0 -30 -31 -30 -160z"/> <path d="M1610 660 c0 -177 4 -200 35 -200 28 0 35 18 35 90 0 59 9 90 25 90 14 0 47 -40 73 -90 30 -57 61 -90 85 -90 48 0 47 8 -12 94 l-49 72 39 50 c75 95 7 184 -140 184 l-91 0 0 -200z m180 90 c0 -29 -15 -42 -55 -46 -48 -6 -55 0 -55 46 0 46 7 52 55 46 40 -4 55 -17 55 -46z"/> <path d="M2044 836 c-53 -53 -28 -133 57 -187 52 -33 79 -63 75 -85 -10 -51 -67 -52 -114 -2 -37 40 -42 41 -54 10 -32 -84 131 -150 201 -81 60 60 39 143 -49 199 -44 28 -80 60 -80 71 0 34 63 47 81 17 14 -21 23 -22 41 -4 19 19 19 31 -1 55 -31 37 -123 41 -157 7z"/> <path d="M2360 660 l0 -200 130 0 c102 0 130 6 130 30 0 22 -23 30 -90 30 -87 0 -90 2 -90 60 0 55 6 60 70 60 49 0 70 9 70 30 0 21 -21 30 -70 30 -61 0 -70 6 -70 50 0 46 8 50 87 50 63 0 86 8 86 30 0 24 -27 30 -126 30 l-127 0 0 -200z"/> </g> </svg> 