 <svg  version="1.0" xmlns="http://www.w3.org/2000/svg"  width="300.000000pt" height="58.000000pt" viewBox="0 0 300.000000 58.000000"  preserveAspectRatio="xMidYMid meet">  <g transform="translate(0.000000,58.000000) scale(0.050000,-0.050000)" fill="#3081da" stroke="none"> <path d="M395 1070 c-407 -140 -437 -770 -45 -952 216 -100 471 -14 577 195 l32 62 -85 22 c-64 16 -86 16 -92 -3 -45 -134 -265 -193 -396 -107 -222 146 -149 594 104 642 63 12 229 -36 230 -66 3 -87 220 -138 220 -52 0 180 -326 335 -545 259z"/> <path d="M1540 1085 c-538 -164 -441 -1005 115 -1005 273 0 531 292 467 529 -2 11 -7 47 -10 80 -24 262 -325 471 -572 396z m230 -185 c296 -143 192 -667 -129 -653 -381 17 -364 667 18 691 15 1 66 -16 111 -38z"/> <path d="M4535 1055 c-215 -123 -171 -378 88 -515 166 -88 197 -114 197 -168 0 -177 -236 -176 -310 1 l-30 71 -65 -41 c-160 -102 32 -323 280 -323 365 0 409 406 63 581 -189 95 -234 163 -158 239 55 55 94 50 158 -18 l55 -59 63 41 c77 48 78 56 13 133 -86 103 -233 127 -354 58z"/> <path d="M2370 735 c11 -537 76 -655 366 -655 308 0 383 126 384 645 l0 355 -89 0 -89 0 -6 -368 c-7 -432 -23 -472 -187 -472 -176 0 -185 26 -187 495 l-2 345 -98 0 -99 0 7 -345z"/> <path d="M3400 580 l0 -500 90 0 90 0 0 221 0 222 54 -7 c45 -5 75 -41 183 -221 l128 -215 98 0 c117 0 115 -10 17 138 -44 66 -80 126 -80 132 0 7 -22 41 -48 76 -68 89 -69 110 -13 139 183 94 181 383 -3 477 -60 31 -118 38 -295 38 l-221 0 0 -500z m448 302 c100 -84 5 -202 -162 -202 l-106 0 0 116 0 116 118 -2 c67 -1 132 -13 150 -28z"/> <path d="M5260 580 l0 -500 319 0 319 0 -4 84 -4 83 -225 -5 -225 -5 0 146 0 147 178 -7 178 -7 -1 92 -1 92 -177 0 -177 0 0 105 0 106 220 -8 220 -7 0 92 0 92 -310 0 -310 0 0 -500z"/> </g> </svg> 