<?xml version="1.0" standalone="no"?>
<!DOCTYPE svg PUBLIC "-//W3C//DTD SVG 20010904//EN"
 "http://www.w3.org/TR/2001/REC-SVG-20010904/DTD/svg10.dtd">
<svg version="1.0" xmlns="http://www.w3.org/2000/svg"
 width="254.000000pt" height="120.000000pt" viewBox="0 0 254.000000 120.000000"
 preserveAspectRatio="xMidYMid meet">
<metadata>
Created by potrace 1.10, written by Peter Selinger 2001-2011
</metadata>
<g transform="translate(0.000000,120.000000) scale(0.050000,-0.050000)"
fill="#307aef" stroke="none">
<path d="M2050 1750 c-11 -4 -54 -12 -95 -19 -377 -63 -411 -762 -45 -902 403
-154 755 260 568 671 -76 169 -291 294 -428 250z m164 -189 c306 -187 83 -749
-234 -587 -210 108 -222 480 -19 589 88 48 173 47 253 -2z"/>
<path d="M664 1716 c-17 -17 -24 -150 -24 -470 l0 -446 85 0 85 0 0 215 0 215
190 0 190 0 6 -215 5 -215 80 0 79 0 0 470 0 470 -80 0 -80 0 0 -180 0 -180
-201 0 -202 0 7 180 6 180 -61 0 c-34 0 -72 -11 -85 -24z"/>
<path d="M2820 1270 l0 -470 80 0 80 0 0 293 c0 162 5 289 11 283 6 -7 49
-118 95 -249 110 -309 168 -331 255 -97 29 77 72 190 95 250 l41 110 2 -295 1
-295 85 0 85 0 0 471 0 471 -98 -6 -98 -6 -103 -274 c-56 -151 -108 -279 -114
-286 -7 -6 -60 119 -119 279 l-108 291 -95 0 -95 0 0 -470z"/>
<path d="M3940 1270 l0 -470 300 0 300 0 0 80 0 80 -210 0 -210 0 0 120 c0 66
-2 126 -5 133 -3 7 69 11 160 9 l165 -5 0 82 0 81 -160 0 -160 0 0 106 0 105
200 -8 200 -8 0 83 0 82 -290 0 -290 0 0 -470z"/>
</g>
</svg>
